<svg width="67" height="54" viewBox="0 0 67 54" fill="none" xmlns="http://www.w3.org/2000/svg">
<path d="M65.3453 12.4939C65.2636 12.4774 59.884 11.4409 55.356 13.6012C50.0136 5.58475 40.3051 0.635406 29.738 0.635406C13.3405 0.635406 0 12.4352 0 26.9386C0 41.442 13.3407 53.2419 29.738 53.2419C44.9353 53.2419 57.5547 43.2626 59.2751 29.9674C60.8812 28.79 62.4688 27.2014 63.96 25.0569C64.121 24.8251 64.159 24.5426 64.0627 24.2851C63.9665 24.0269 63.7473 23.8194 63.4619 23.7178C63.4117 23.7 61.6382 23.0884 59.09 22.7729C58.9776 22.1499 58.8393 21.5304 58.6767 20.9152C61.3278 19.991 64.0943 17.953 66.074 13.747C66.192 13.4959 66.1791 13.2119 66.0384 12.9701C65.8985 12.7284 65.6445 12.5547 65.3453 12.4939ZM61.7651 16.6234C60.4614 16.1405 59.3664 15.9217 58.4737 15.8465C59.9577 15.2035 61.6543 14.6112 63.5557 14.1763C63.0017 15.1498 62.3959 15.9489 61.7651 16.6234ZM52.7988 19.6591C52.7494 19.6505 52.7033 19.6391 52.6532 19.6369C52.5084 19.6126 52.3693 19.5876 52.2448 19.5618C52.248 19.5547 52.2521 19.5482 52.2553 19.5411C53.0155 18.9274 54.3216 17.9681 56.1346 16.9824C56.45 16.8565 58.061 16.3443 61.0152 17.3551C58.0609 19.9544 54.6937 19.9503 52.7988 19.6591ZM57.989 24.4709C58.0537 24.4824 58.1152 24.5024 58.1831 24.5024C58.213 24.5024 58.2438 24.4996 58.2737 24.4974C58.2842 24.4981 58.2931 24.5003 58.3036 24.501C53.0121 25.2192 49.1684 26.7585 46.6865 28.0733C50.0151 24.594 54.5794 24.1598 57.989 24.4709ZM58.5276 28.1026C57.7286 28.7499 56.9248 29.2714 56.1282 29.6884C53.9332 28.3572 51.6041 27.8215 50.016 27.604C50.6395 27.355 51.3237 27.114 52.0442 26.8794C52.6524 26.8672 55.377 26.8915 58.5276 28.1026ZM60.2801 14.1333C57.4318 15.0983 55.1787 16.3307 53.5727 17.3822C55.3948 15.1949 58.0142 14.3758 60.2801 14.1333ZM50.0563 19.5439C47.3237 20.9188 45.0923 25.4195 44.8377 25.9482L42.7011 30.2278C42.7003 30.23 42.6987 30.2328 42.6987 30.2328L42.6979 30.2343L41.4783 32.6764C41.2236 30.9417 40.6494 29.6212 40.3291 28.9861C41.2438 27.0147 45.1902 16.6413 30.7217 10.0699C30.4491 9.94618 30.1272 9.93402 29.8434 10.0392C29.5595 10.1436 29.3428 10.3539 29.2506 10.6129C29.2005 10.7545 24.4452 24.6328 38.3405 29.5748C38.7424 30.3238 40.659 34.3116 38.5184 38.6021L37.6863 40.2694C36.7667 42.1107 34.876 43.3997 32.6277 43.7172L31.2019 43.9189C30.6334 43.9991 30.2452 44.4719 30.3366 44.9754C30.4182 45.4297 30.8614 45.7523 31.3644 45.7523C31.4194 45.7523 31.4752 45.7487 31.5302 45.7408L32.956 45.5391C35.9062 45.1228 38.3872 43.431 39.5932 41.0148L40.4237 39.351L40.4246 39.3503L40.4254 39.3474L44.1633 31.8602C45.3812 32.3202 47.5582 32.9668 50.1987 32.9668C50.6661 32.9668 51.1497 32.9432 51.6431 32.8981C48.7115 41.391 39.9241 47.2144 29.7371 47.2144C17.096 47.2144 6.81251 38.1178 6.81251 26.9358C6.81251 15.7547 17.097 6.65899 29.7371 6.65899C38.6653 6.65899 46.7702 11.2577 50.5251 18.3993C50.3553 18.7598 50.1992 19.1418 50.0569 19.5431L50.0563 19.5439ZM39.154 26.1899C38.9276 24.7564 38.5701 23.4045 38.1302 22.1312C38.1278 22.0597 38.1116 21.9882 38.0696 21.9209C38.0607 21.9073 38.0518 21.8959 38.0429 21.8823C36.8387 18.5082 35.0676 15.7493 33.5455 13.7992C39.9223 18.1161 39.8737 23.2708 39.154 26.1899ZM30.9351 12.2714C30.9383 12.2735 30.9416 12.2749 30.9456 12.2771C32.1401 13.5417 34.1151 15.9065 35.7405 19.1054C33.7454 17.2092 31.6499 16.2306 30.487 15.7972C30.521 14.3558 30.7394 13.1062 30.9351 12.2714ZM37.0926 22.2764C37.3037 22.8787 37.4929 23.4996 37.6604 24.1406C35.4047 21.6778 32.3939 20.3059 30.9294 19.7472C30.7919 19.2343 30.6835 18.7036 30.6075 18.1514C30.5452 17.6978 30.5145 17.2544 30.4967 16.8195C32.1133 17.4976 35.0192 19.0839 37.0926 22.2764ZM38.1448 26.4395C38.1989 26.7964 38.2297 27.1655 38.2661 27.5317C34.8089 26.1097 32.4903 23.9009 31.3378 20.9387C33.2544 21.7835 36.41 23.5332 38.1448 26.4395ZM52.9208 30.8622C52.9054 30.8643 52.8917 30.8686 52.8771 30.8708C49.4305 31.6154 46.4558 30.757 45.0422 30.2069C45.0511 30.1919 45.0624 30.1798 45.0713 30.1647C45.7741 29.6898 46.8351 29.051 48.2503 28.3779C48.9717 28.3922 52.1127 28.5725 55.0654 30.1833C54.3375 30.4859 53.6194 30.7091 52.9208 30.8622ZM47.893 24.6447C48.8133 23.1905 49.9876 21.7091 51.0316 21.1719C51.2265 21.2227 51.4667 21.2792 51.7627 21.3371C51.9398 21.8836 52.0894 22.4358 52.214 22.9938C50.751 23.3056 49.2816 23.8286 47.893 24.6447ZM29.7383 51.3966C14.4908 51.3966 2.08509 40.4245 2.08509 26.9374C2.08509 13.4503 14.49 2.47815 29.7383 2.47815C39.6045 2.47815 48.6663 7.11912 53.6214 14.6285C52.9453 15.1242 52.3169 15.725 51.7533 16.4332C47.4128 9.32305 38.9772 4.81448 29.7396 4.81448C15.9487 4.81448 4.72818 14.7386 4.72818 26.9371C4.72818 39.1359 15.9482 49.0597 29.7396 49.0597C41.2218 49.0597 51.0721 42.2764 53.9333 32.5067C54.9127 32.2613 55.9163 31.9094 56.928 31.408C54.5424 42.9331 43.2347 51.3936 29.7407 51.3936L29.7383 51.3966ZM59.3292 27.4043C57.5808 26.6847 55.9505 26.3199 54.6557 26.1354C56.6306 25.6575 58.8918 25.2949 61.419 25.1261C60.7348 26.0009 60.0353 26.7528 59.3292 27.4043ZM56.9459 22.6017C56.0919 22.5723 55.1918 22.5924 54.2698 22.6789C54.1889 22.3134 54.1056 21.95 54.0037 21.5888C54.1703 21.5952 54.3337 21.6038 54.5084 21.6038C55.1812 21.6038 55.9115 21.553 56.6716 21.4278C56.7735 21.817 56.8658 22.2075 56.9459 22.6017Z" fill="#F1E60D"/>
</svg>
