<svg width="100" height="64" viewBox="0 0 100 64" fill="none" xmlns="http://www.w3.org/2000/svg">
<path d="M98.9749 47.0953C98.6005 46.9323 89.7607 43.0865 87.0758 41.9805C86.0388 41.5516 85.583 39.8302 85.2185 38.4467C84.9695 37.5038 84.737 36.6622 84.3219 36.0152C84.3434 35.9741 84.3567 35.9307 84.3775 35.8896C84.4007 35.8544 84.4348 35.8243 84.4547 35.7861C85.534 33.7335 85.7383 31.5238 85.2027 29.511C84.8881 28.0959 84.2671 26.7704 83.3355 25.6217C83.3355 25.6217 91.4604 8.10877 91.4719 8.08452C91.5068 8.03091 91.5392 7.97804 91.5641 7.92149L91.5973 7.84879C91.5973 7.84879 92.5039 6.12746 92.4989 6.12598C93.3475 4.51406 91.8131 2.45705 88.8534 1.23226C87.6802 0.746852 86.4423 0.478806 85.3664 0.478806C83.8769 0.478806 82.7495 0.996528 82.2713 1.90126L81.2086 3.91996L71.3218 20.6662C69.5933 20.7815 67.9086 21.2567 66.4276 22.0468C66.357 22.0806 66.2856 22.1328 66.215 22.1695C65.9427 22.3112 65.6779 22.464 65.4188 22.627C65.4022 22.6373 65.3873 22.6431 65.3599 22.6622C63.9044 23.6463 62.6059 24.9505 61.8214 26.4464C61.7899 26.5 61.7525 26.5661 61.6911 26.6814C58.8085 27.0809 56.5949 30.553 55.4973 32.6723C54.9751 33.6798 54.3881 35.0237 53.9198 36.4433C53.9016 36.4925 53.88 36.5365 53.8683 36.5879C53.1825 38.7117 52.8073 40.9728 53.3411 42.576C53.3411 42.576 52.8778 43.4536 52.8729 43.4609L51.8625 45.3732C49.4565 49.9622 51.6989 54.09 58.0131 56.6962L60.7604 57.8359C62.9607 58.7443 65.0387 59.2047 66.9042 59.2047C67.9445 59.2047 68.9201 59.0615 69.8136 58.7744C71.6609 58.181 73.1046 56.9759 74.1624 55.251C75.0027 55.4478 75.8827 55.5131 76.6341 55.5131C77.1431 55.5131 77.5881 55.4867 77.9243 55.4566C81.0045 57.6721 87.3194 61.2279 93.6826 63.8517C94.3435 64.1242 95.153 63.8635 95.461 63.2775C95.774 62.6856 95.4826 61.9813 94.8134 61.7044C90.062 59.7467 85.4838 57.4084 81.2205 54.7104C80.4276 54.2089 79.7701 53.3724 78.7994 53.1242C77.745 52.8547 76.4806 53.216 75.3747 53.0633L78.8866 46.3637C79.6213 47.3639 80.6467 48.3574 82.0939 49.2409C82.6875 49.6037 83.5377 49.4759 83.9561 48.9391C84.3762 48.4016 84.2235 47.665 83.6149 47.2934C79.0926 44.5321 79.8456 40.4308 79.8805 40.2567C80.108 39.1346 78.1876 38.3591 77.3357 37.8694C75.5 36.8141 73.5747 35.8682 71.6384 34.9686C69.8932 34.1579 69.259 33.3376 69.4084 32.9191C69.5138 32.6275 70.0444 32.3389 70.5849 32.4102C72.7129 32.651 78.5005 34.4819 81.9609 37.1057C82.1834 37.3261 82.4458 38.324 82.6201 38.9835C83.1175 40.8657 83.736 43.2104 85.9528 44.1261C88.6131 45.2211 97.71 49.18 97.8022 49.2182C98.4564 49.5024 99.2709 49.2578 99.5939 48.6792C99.9119 48.0939 99.6396 47.3852 98.9753 47.0951L98.9749 47.0953ZM81.1086 24.1824C80.6852 23.9275 80.2435 23.6911 79.7669 23.4943C79.0978 23.2159 78.3015 23.4722 77.9885 24.0656C77.6755 24.6575 77.9636 25.3617 78.6345 25.6386C82.3357 27.1719 83.5222 31.0566 82.212 34.2975C78.881 32.2318 74.567 30.7395 71.9002 30.2232L64.4495 27.139C64.476 27.0935 64.5101 27.0516 64.5383 27.0061C64.8347 26.5545 65.1626 26.1241 65.567 25.7114C67.7124 23.5237 71.2991 22.608 74.3295 23.8571C75.0021 24.1384 75.7949 23.8792 76.108 23.2858C76.421 22.6925 76.1312 21.9882 75.462 21.7128C74.9888 21.5175 74.4981 21.3662 74.0016 21.2421L81.8972 7.86355C82.5514 8.46867 83.4332 9.02678 84.5126 9.474C85.5637 9.90874 86.6239 10.1474 87.5911 10.2017L81.1086 24.1824ZM66.8739 33.9794C65.9166 34.2159 65.0182 34.6293 64.2436 35.2065C65.3761 32.7244 65.6808 31.1843 65.7281 30.284L67.6352 31.0742C67.284 31.3966 67.0059 31.774 66.8506 32.208C66.7161 32.5803 66.5957 33.2186 66.8739 33.9794ZM56.1984 42.4127C56.1635 42.3833 56.1012 42.3194 56.0224 42.2129C56.0107 42.185 55.9958 42.1579 55.9825 42.1314C55.7384 41.7275 55.6762 40.9565 55.8048 39.9364C56.3105 40.3344 56.9556 40.7133 57.7493 41.0475C56.8559 42.1241 56.3478 42.3657 56.1984 42.4127ZM59.1889 39.0376C57.3889 38.3598 56.7761 37.4242 56.5686 36.8514C56.6625 36.576 56.7679 36.2977 56.8783 36.0135C57.5458 36.6737 58.5147 37.3339 59.9088 37.8575C59.6522 38.293 59.4147 38.6792 59.1889 39.0376ZM61.7934 34.2321C61.5892 34.6852 61.3484 35.1809 61.0719 35.7162C58.9182 34.9378 58.2897 33.8186 58.1186 33.3215C58.3229 32.9455 58.5255 32.5952 58.728 32.2706C59.3657 32.9683 60.333 33.6768 61.7934 34.2321ZM88.7164 7.74345C88.4906 7.89913 87.2876 8.00707 85.6462 7.33074C84.0015 6.64999 83.3191 5.76067 83.2908 5.5771L83.4378 5.2973C84.0787 5.85982 84.9082 6.37901 85.9211 6.7976C86.8934 7.20002 87.9038 7.44164 88.8362 7.51507L88.7164 7.74345ZM85.3655 2.85123C86.0479 2.85123 86.9048 3.04363 87.7175 3.37924C89.1945 3.99022 89.8944 4.76864 90.0264 5.10645C89.9159 5.14023 89.715 5.18209 89.407 5.18209C88.7245 5.18209 87.8677 4.98823 87.055 4.65408C85.578 4.0431 84.8764 3.26468 84.7461 2.92687C84.8549 2.89089 85.0574 2.85123 85.3655 2.85123ZM62.2364 29.0146L62.4904 29.0499C62.5303 29.0601 62.8922 29.171 63.0591 29.8547C63.0608 29.865 63.133 30.5002 62.6706 31.9828C61.255 31.4056 60.6257 30.6793 60.3549 30.1432C61.1121 29.3802 61.778 29.0146 62.2364 29.0146ZM68.8958 56.5522C66.6067 57.2866 63.8247 56.4913 61.8918 55.6938L59.1445 54.554C55.7146 53.1375 52.0873 50.5687 54.2874 46.3747L54.7307 45.5354L72.5097 52.8877L72.073 53.7212C71.3133 55.1657 70.2457 56.1166 68.8958 56.5522ZM73.6375 50.7405L57.9631 44.2584C58.9354 43.6666 60.1152 42.4497 61.6187 40.0498C61.5564 42.4275 62.9654 44.6997 65.4454 45.7359C66.3337 46.1001 67.2711 46.272 68.1993 46.272C70.8344 46.272 73.4075 44.8855 74.633 42.5576C75.137 41.5999 75.3528 40.5674 75.3089 39.5519C76.1283 40.005 76.7493 40.3685 77.1512 40.616C77.1113 41.2718 77.1396 42.2822 77.4609 43.4483L73.6375 50.7405ZM72.0434 37.8547C72.7682 38.9482 72.8496 40.3414 72.2094 41.5573C71.1741 43.5254 68.6476 44.4346 66.5827 43.5907C64.5262 42.7322 63.6902 40.4263 64.7138 38.4582C65.4868 36.9961 67.0658 36.0994 68.7282 36.1229C69.1831 36.438 69.7236 36.7552 70.3912 37.0644C70.9773 37.3383 71.5261 37.6005 72.0434 37.8545L72.0434 37.8547Z" fill="#F1E60D"/>
<path d="M80.2327 13.4385C79.5785 13.1367 78.769 13.3584 78.4278 13.9401L75.1716 19.4574C74.8287 20.0375 75.0827 20.752 75.7386 21.0539C76.3846 21.3513 77.2057 21.1251 77.5436 20.5523L80.7998 15.035C81.1435 14.457 80.8886 13.7403 80.2327 13.4385Z" fill="#F1E60D"/>
<path d="M82.6472 9.34958C81.993 9.04776 81.1835 9.27101 80.8423 9.85116L79.87 11.4968C79.5272 12.077 79.7812 12.7915 80.4371 13.0933C81.0847 13.3908 81.9042 13.1661 82.2421 12.5918L83.2143 10.9461C83.5556 10.3659 83.3015 9.65141 82.6472 9.34958Z" fill="#F1E60D"/>
<path d="M46.2638 41.777C45.9542 41.1865 46.1036 40.0454 45.9209 39.3689C45.2285 36.8045 44.0686 34.1925 42.5691 31.9158C41.2756 29.9522 39.7837 28.2264 38.6976 27.4024C37.7171 25.4226 36.5073 23.7886 34.533 22.4771C33.6712 21.9043 32.6973 21.4454 31.6902 21.1053C31.3141 20.9783 28.6838 20.6332 28.5983 20.4885L18.8238 3.93753C18.7283 3.76569 17.6457 1.7455 17.6573 1.73967C17.1824 0.835671 16.0541 0.317215 14.5671 0.317215C13.4911 0.317215 12.2531 0.583793 11.0801 1.0692C8.12192 2.2919 6.58756 4.34879 7.42945 5.96442L8.57022 8.13521L16.6046 25.4602C15.5892 26.7122 14.9416 28.1479 14.6651 29.6438C14.2301 31.9996 14.7457 34.224 15.8931 36.4043L16.1521 36.8986C15.7387 37.5529 15.5079 38.393 15.2737 39.3387C14.9441 40.665 14.534 42.3136 13.6008 42.6999C10.9257 43.8176 1.15776 48.1063 0.742663 48.2885C0.0801188 48.58 -0.188878 49.2901 0.140736 49.8747C0.470351 50.4622 1.27485 50.7008 1.93408 50.4093C2.0362 50.3652 12.0922 45.9459 14.739 44.8422C16.8653 43.9602 17.4333 41.6778 17.8881 39.8464C18.0351 39.256 18.2493 38.3931 18.4203 38.0839C18.73 38.1566 19.2705 38.3637 19.6856 38.5253C22.7924 39.7238 26.0571 40.1798 29.2261 38.8792C30.7139 38.2653 32.0183 37.448 33.213 36.4169C33.7485 35.9564 35.8184 39.8119 35.947 40.0623C36.8403 41.8071 37.8524 44.0845 37.2322 46.0261C37.0313 46.6547 37.4448 47.309 38.1555 47.4867C38.2775 47.5176 38.3995 47.5308 38.5199 47.5308C39.1036 47.5308 39.6391 47.1922 39.8085 46.6694C39.9339 46.2772 39.9994 45.8675 40.0343 45.4496C40.8338 45.1801 42.1075 44.6756 43.2939 43.8986C43.2823 43.9251 43.2707 43.9508 43.2607 43.9772C42.5566 45.9615 40.1116 47.8531 36.3787 49.3065C34.1213 50.1841 31.7127 50.8311 29.2642 51.1123C28.5344 51.1968 27.7382 51.2988 26.9685 51.2394C26.247 51.1843 25.4392 50.9493 24.7616 51.2959C24.0186 51.6763 23.2091 52.592 22.5962 53.1414C20.3877 55.1285 17.6189 56.7941 14.9298 58.2276C12.6126 59.4635 10.2704 60.6134 7.81525 61.6239C7.14441 61.9008 6.85465 62.6035 7.16599 63.1969C7.47069 63.777 8.29016 64.0407 8.94439 63.7712C17.7467 60.1472 22.9575 56.2235 25.2646 54.2246L25.4373 54.5514C26.5001 56.5834 28.071 57.9477 30.1091 58.6064C33.029 59.5508 36.4871 58.8657 39.1862 57.6709C42.4507 56.305 46.0325 55.0205 47.942 52.1227C49.3102 50.0467 49.3526 47.6535 48.0607 45.2073C48.0649 45.2132 46.2649 41.7786 46.2632 41.7771L46.2638 41.777ZM38.1223 38.5861C38.1123 38.5509 38.0974 38.5208 38.0874 38.487C39.0995 37.8672 40.5708 36.7928 41.5993 35.363C41.8218 35.7816 42.0261 36.1965 42.2137 36.6063C41.7687 38.006 39.8748 38.9783 38.5813 39.4864C38.4294 39.1736 38.2759 38.8718 38.1223 38.5861ZM39.9962 32.7317C39.914 33.0512 39.7986 33.3728 39.6217 33.6879C38.9791 34.7931 37.8284 35.7022 36.9566 36.2824C36.4145 35.6046 35.7337 35.0406 34.9607 34.6C36.2941 32.9352 37.1542 31.1802 37.6781 29.8508C38.3025 30.4809 39.1261 31.4621 39.9962 32.7317ZM11.2665 7.6437L11.1129 7.35215C12.0411 7.27651 13.0474 7.03564 14.0137 6.63615C15.0308 6.21609 15.8644 5.69324 16.5054 5.12778L16.6191 5.34221C16.6125 5.5985 15.9317 6.48634 14.2854 7.16562C12.6473 7.84491 11.4442 7.73843 11.2665 7.6437ZM12.2172 3.2162C13.03 2.88059 13.8868 2.6882 14.5692 2.6882C14.8772 2.6882 15.0781 2.72786 15.1886 2.76384C15.0582 3.10092 14.3583 3.88153 12.8797 4.49252C12.0669 4.82813 11.2084 5.02052 10.5277 5.02052C10.2196 5.02052 10.0171 4.98087 9.90664 4.94488C10.037 4.60854 10.736 3.82719 12.2172 3.2162ZM12.3492 10.0399C13.3148 9.98335 14.3717 9.74541 15.4194 9.30994C16.497 8.86418 17.3788 8.30828 18.0313 7.70389L25.9304 21.0794C25.433 21.2035 24.9449 21.3548 24.4699 21.5501C23.8008 21.8285 23.511 22.5313 23.824 23.1231C24.137 23.715 24.9349 23.9742 25.6024 23.6945C29.4008 22.1039 33.4814 24.0367 35.4774 26.9844C33.4392 27.7584 31.4499 28.6404 29.4407 29.471C26.27 30.7804 23.101 32.0919 19.9319 33.4013C19.2121 33.6987 18.4931 33.9961 17.7733 34.2935C17.7061 34.1466 17.6529 33.999 17.5956 33.8522C16.386 30.682 17.77 26.9352 21.2969 25.4747C21.9661 25.1964 22.2558 24.4936 21.9428 23.9017C21.6298 23.3098 20.8336 23.052 20.1644 23.3303C19.6895 23.5272 19.2512 23.7622 18.8294 24.0155L12.3492 10.0399ZM28.1015 36.7353C27.3784 37.0298 26.6494 37.2207 25.9361 37.3007C25.8688 37.3081 25.8041 37.3213 25.7418 37.3345C23.7741 37.5299 22.1062 36.8756 20.7596 36.3564C20.4598 36.2411 20.1726 36.1317 19.8928 36.0325L34.7875 29.8749C34.1316 31.362 33.2631 32.8806 31.923 34.2185C30.7988 35.3142 29.5494 36.1375 28.1015 36.7353ZM39.842 42.9657C39.7499 42.5485 39.6312 42.1336 39.4975 41.7239C40.6283 41.2965 42.1194 40.5871 43.2702 39.5414C43.3166 39.7279 43.349 39.9057 43.3839 40.0863C43.0012 41.4015 41.251 42.3974 39.842 42.9657ZM45.6347 50.935C44.7746 52.2399 43.0967 53.4348 40.7762 54.3937L38.0537 55.5335C36.1175 56.3324 33.3271 57.13 31.0331 56.3875C29.7031 55.9572 28.6503 55.0202 27.8972 53.6022C30.3564 53.5265 33.504 52.8076 35.646 52.1195C38.5536 51.1854 43.4413 49.1548 45.3599 45.6822L45.6397 46.2146C46.5688 47.9756 46.5671 49.5192 45.6347 50.935Z" fill="#F1E60D"/>
<path d="M19.6978 13.2749C19.042 13.5767 18.7896 14.2927 19.1308 14.8714C19.1308 14.8714 22.3821 20.3814 22.387 20.39C22.7265 20.9658 23.5452 21.189 24.1919 20.8916C24.8478 20.5898 25.1002 19.8738 24.759 19.2951L21.5028 13.7765C21.1599 13.1956 20.3504 12.9731 19.6978 13.2749Z" fill="#F1E60D"/>
<path d="M18.8753 13.0606C19.0862 13.0621 19.2988 13.0209 19.4947 12.9306C20.1506 12.6288 20.403 11.9128 20.0618 11.3341L19.0912 9.68988C18.7483 9.10826 17.9363 8.88796 17.2862 9.18831C16.6303 9.49013 16.3779 10.2061 16.7192 10.7848C16.7192 10.7848 17.6881 12.4276 17.6897 12.429C17.9239 12.8256 18.3938 13.0562 18.8753 13.0606Z" fill="#F1E60D"/>
</svg>
