<svg width="39" height="44" viewBox="0 0 39 44" fill="none" xmlns="http://www.w3.org/2000/svg">
<path d="M5.95439 5.4651L35.0759 5.7305C35.6859 5.84431 37.5553 6.17983 38.4922 7.79402C39.0398 8.81907 39.1506 10.0604 38.7949 11.1845C38.7949 11.2278 38.7949 11.271 38.756 11.3093L35.7643 25.8887H35.7639C35.6591 26.197 35.4721 26.4624 35.2281 26.6501C34.984 26.8378 34.6945 26.9386 34.3975 26.9394H11.4592C11.9864 28.5641 12.977 30.7306 14.5633 30.7306H35.2221V33.9804H14.5875C11.6299 33.9804 9.27286 29.8751 8.33059 25.7153L3.48439 7.44201H3.41628C3.19189 6.46189 2.44 3.24984 -1.17693e-06 3.24984V3.96585e-05C2.44 -0.0104586 4.88029 2.06398 5.95383 5.46504L5.95439 5.4651ZM16.5938 19.3577H27.331V15.566H16.5938V19.3577ZM9.12674 40.4797C9.12674 41.4133 9.46087 42.309 10.0557 42.9691C10.6506 43.6291 11.4577 44 12.2989 44C13.14 44 13.9472 43.6292 14.542 42.9691C15.1368 42.3089 15.471 41.4132 15.471 40.4797C15.471 39.5462 15.1369 38.6505 14.542 37.9904C13.9472 37.3304 13.14 36.9595 12.2989 36.9595C11.4581 36.9608 10.6517 37.332 10.0572 37.9921C9.46232 38.6518 9.12787 39.5466 9.12674 40.4797ZM28.6483 40.4797C28.6483 41.4133 28.9824 42.309 29.5773 42.9691C30.1721 43.6292 30.9793 44 31.8204 44C32.662 44 33.4688 43.6292 34.0636 42.9691C34.6585 42.3089 34.993 41.4132 34.993 40.4797C34.993 39.5462 34.6585 38.6505 34.0636 37.9904C33.4688 37.3303 32.662 36.9595 31.8204 36.9595C30.9796 36.9608 30.1732 37.332 29.5787 37.9921C28.9843 38.6518 28.6494 39.5466 28.6483 40.4797Z" fill="#FFFFFA"/>
</svg>
