<svg width="34" height="45" viewBox="0 0 34 45" fill="none" xmlns="http://www.w3.org/2000/svg">
<path d="M27.1528 11.4436C27.1528 17.764 22.6354 22.8873 17.0627 22.8873C11.4899 22.8873 6.9726 17.7638 6.9726 11.4436C6.9726 5.12367 11.4901 0 17.0627 0C22.6352 0 27.1528 5.12347 27.1528 11.4436Z" fill="white"/>
<path d="M32.5203 31.578C30.9552 24.4847 28.0303 23.4128 24.8705 21.4221C22.7733 23.5631 20.0059 24.8764 16.9612 24.8764C13.9161 24.8764 11.1491 23.5631 9.05185 21.4221C5.89175 23.4125 2.96613 24.4844 1.40344 31.578C0.70173 34.7621 0 39.9351 0 39.9351C0 39.9351 6.54887 44.1802 16.9619 44.1802C27.3746 44.1802 33.9238 39.9351 33.9238 39.9351C33.9245 39.9351 33.2217 34.7622 32.521 31.578H32.5203Z" fill="#FFFFFA"/>
</svg>
