<svg width="63" height="77" viewBox="0 0 63 77" fill="none" xmlns="http://www.w3.org/2000/svg">
<path d="M15.252 2.43829H47.4207C49.2461 4.12752 50.8431 6.05856 52.212 7.98876H10.4612C11.8301 6.05776 13.4271 4.1274 15.2525 2.43829H15.252ZM56.5465 15.7115C63.1628 31.1569 61.1092 49.0157 55.862 61.8065H6.81058C1.56344 49.0155 -0.490104 31.1569 6.35406 15.7115H56.5465ZM51.9838 69.5292C50.6149 71.9424 49.0179 73.8734 47.4211 75.3215H15.2525C13.6556 73.8734 12.2866 71.943 10.6898 69.5292H51.9843H51.9838Z" stroke="#F1E60D" stroke-width="3" stroke-linecap="round" stroke-linejoin="round"/>
<path d="M20.0491 2.43829H41.9511C43.0921 4.12752 44.2325 6.05856 45.1449 7.98876H16.8548C17.7672 6.05776 18.6802 4.1274 20.0486 2.43829H20.0491ZM47.8829 15.7115C52.6742 31.1569 51.0767 49.0157 47.6549 61.8065H14.3456C10.6952 49.0155 9.32636 31.1569 13.8891 15.7115H47.8829ZM44.917 69.5292C44.0046 71.9424 42.8636 73.8734 41.9511 75.3215H20.0491C18.9081 73.8734 17.7677 71.943 16.8552 69.5292H44.9172H44.917Z" stroke="#F1E60D" stroke-width="3" stroke-linecap="round" stroke-linejoin="round"/>
<path d="M26.092 2.43829H35.902C36.5865 4.12752 37.043 6.05856 37.4989 7.98876H24.7225C25.179 6.05776 25.6349 4.1274 26.0915 2.43829H26.092ZM38.6398 15.7115C40.6932 31.1569 40.2367 49.0157 38.4118 61.8065H23.5825C23.3546 60.1172 23.126 57.9451 22.8981 56.0142C24.9515 55.5313 26.5484 53.842 26.5484 51.4288C26.5484 49.0155 24.7229 47.0845 22.2136 47.0845C21.7571 36.9485 21.9857 25.8468 23.3546 15.711H38.6404L38.6398 15.7115ZM37.2708 69.5292C36.8143 71.9424 36.3584 73.8734 35.9019 75.3215H26.0918C25.6353 73.8734 25.1794 71.943 24.7229 69.5292H37.2708Z" stroke="#F1E60D" stroke-width="3" stroke-linecap="round" stroke-linejoin="round"/>
<path d="M5 67.1158H57.4737L53.3668 74.8386H8.87826L5 67.1158Z" stroke="#F1E60D" stroke-width="3" stroke-linecap="round" stroke-linejoin="round"/>
<path d="M5 15.7137H57.4737L53.3668 7.99092H8.87826L5 15.7137Z" stroke="#F1E60D" stroke-width="3" stroke-linecap="round" stroke-linejoin="round"/>
<path d="M35.2137 56.7385C35.2137 59.1374 33.3747 61.082 31.1069 61.082C28.839 61.082 27 59.1373 27 56.7385C27 54.3389 28.839 52.3942 31.1069 52.3942C33.3747 52.3942 35.2137 54.3389 35.2137 56.7385Z" stroke="#F1E60D" stroke-width="3"/>
</svg>
